# xmcd CD database file
#
# Track frame offsets:
#	150
#	11885
#	24787
#	38372
#	53067
#	68162
#	81025
#	93275
#	104467
#	119727
#	134455
#	147110
#	158822
#	173067
#	188272
#	200252
#
# Disc length: 2845 seconds
#
# Revision: 1
# Processed by: cddbd v1.5.1PL0 Copyright (c) Steve Scherf et al.
# Submitted via: CDex 1.51
#
DISCID=c50b1b10
DTITLE=Nat King Cole - In The Beginning
DYEAR=1989
DGENRE=Jazz
TTITLE0=Honeysuckle Rose
TTITLE1=I Like To Riff
TTITLE2=Sweet Lorraine
TTITLE3=Call The Police
TTITLE4=That Ain't Right
TTITLE5=This Side Up
TTITLE6=Gone With The Draft
TTITLE7=Babs
TTITLE8=This Will Make You Laugh
TTITLE9=Are You Fer It?
TTITLE10=Early Morning Blues
TTITLE11=Scotchin' With The Soda
TTITLE12=Slow Down
TTITLE13=Hit The Ramp
TTITLE14=Stop The Red Light's On
TTITLE15=Hit That Jive Jack
EXTD=YEAR: 1989
EXTT0=
EXTT1=
EXTT2=
EXTT3=
EXTT4=
EXTT5=
EXTT6=
EXTT7=
EXTT8=
EXTT9=
EXTT10=
EXTT11=
EXTT12=
EXTT13=
EXTT14=
EXTT15=
PLAYORDER=
